<svg width="27" height="27" viewBox="0 0 27 27" fill="none" xmlns="http://www.w3.org/2000/svg">
<path d="M9.16667 16.1667C9.55556 16.9444 10.9667 18.5 13.5 18.5C16.0333 18.5 17.4444 16.9444 17.8333 16.1667M24 13.5C24 19.299 19.299 24 13.5 24C7.70101 24 3 19.299 3 13.5C3 7.70101 7.70101 3 13.5 3C19.299 3 24 7.70101 24 13.5ZM17.5 11.6667C17.5 12.1269 17.2761 12.5 17 12.5C16.7239 12.5 16.5 12.1269 16.5 11.6667C16.5 11.2064 16.7239 10.8333 17 10.8333C17.2761 10.8333 17.5 11.2064 17.5 11.6667ZM10.5 11.6667C10.5 12.1269 10.2761 12.5 10 12.5C9.72386 12.5 9.5 12.1269 9.5 11.6667C9.5 11.2064 9.72386 10.8333 10 10.8333C10.2761 10.8333 10.5 11.2064 10.5 11.6667Z" stroke="white" stroke-width="1.5" stroke-linecap="round"/>
</svg>
